<?xml version="1.0" encoding="utf-8"?>
<!-- Generator: Adobe Illustrator 18.1.1, SVG Export Plug-In . SVG Version: 6.00 Build 0)  -->
<svg version="1.1" id="Слой_1" xmlns="http://www.w3.org/2000/svg" xmlns:xlink="http://www.w3.org/1999/xlink" x="0px" y="0px"
	 viewBox="0 0 841.9 595.3" enable-background="new 0 0 841.9 595.3" xml:space="preserve">
<path fill-rule="evenodd" clip-rule="evenodd" fill="#343434" d="M194.5,110.2c2.8-7.5,6.2-15.4,12.8-19.9
	c6.6-4.5,15.2-4.8,23.2-4.8c29.2-0.3,58.5-0.2,87.7,0.2c9.5,0.1,19.4,0.4,27.9,4.5c9.4,4.6,16,13.4,22.2,21.9
	c10.8,14.8,21.6,29.7,32.4,44.5c6.3,8.7,12.9,17.9,14.4,28.6c1.6,11.7-3.1,23.2-7.8,33.9c-16.5,37.7-34.5,74.7-54.1,110.9
	c-1.5,2.8-3.1,6-2.4,9.1c0.7,2.9,3.2,5,5.6,6.9c36.7,28.8,73.4,57.7,110.1,86.5c11.6,9.1,26.7,18.7,40,12.2
	c8.3-4.1,12.8-13.4,20.8-18.1c12.1-7,27.7-0.9,38.6,7.8c10.9,8.7,20,20.2,32.8,25.7c15.7,6.8,36.8,5.1,46.5,19.2
	c6.9,9.9,4.7,23.9,10.7,34.4c6.3,11.1,19.6,15.5,31.5,20.1s24.7,12.2,26.7,24.7c-28.6,8.9-59.2,8.6-89.2,8.1
	c-88-1.5-176-4.8-263.9-9.8c7.7-22.1,38-25.6,54.1-42.6c4.1-4.3,7.3-9.6,12-13.3c4-3.1,8.9-4.9,13.4-7.3
	c14.4-7.5,25.5-21.1,29.8-36.8c-37.2-28.3-74.4-56.5-111.6-84.8c7.2,20.8-4,43-14.8,62.2c-17.4,30.9-34.9,61.9-52.3,92.8
	c-4.6,8.2-9.4,16.6-16.8,22.3c-7.4,5.8-18.1,8.4-26.2,3.7c-8-4.5-11.3-14.5-11.8-23.7c-2.1-43.7,42.5-75.5,53.1-117.9
	c2.3-9.3,2.9-19.3-0.6-28.2c-2.6-6.5-7.2-11.9-12-17c-15.8-17.1-33.4-32.6-52.4-46c-6.2,71.9-19.8,143.1-40.4,212.2
	c-1.7,5.6-3.5,11.3-7.3,15.7c-9.2,10.5-27.6,8.5-37.2-1.7c-9.6-10.2-11.6-25.6-9.1-39.4c2.5-13.8,8.8-26.5,14.1-39.4
	c17.1-42.4,22.9-89.3,16.5-134.6c-2.4-17-6.5-34-5.4-51.1c1.1-17.1,8.5-35.1,23.5-43.4C164.1,226.5,183.4,140.1,194.5,110.2z"/>
<circle fill-rule="evenodd" clip-rule="evenodd" fill="#343434" cx="442" cy="88.4" r="61"/>
<g>
	<path fill="#FFFFFF" d="M520.9,514.2h4.9v6.9h-4.9v9.4h-8.6v-9.4h-17.7l-0.4-5.4l18-28.5h8.7V514.2z M502.8,514.2h9.6v-15.3l-0.6,1
		L502.8,514.2z"/>
	<path fill="#FFFFFF" d="M559.6,512.6c0,6-1.2,10.6-3.7,13.7c-2.5,3.2-6.1,4.8-10.9,4.8c-4.7,0-8.3-1.6-10.8-4.7
		c-2.5-3.1-3.8-7.6-3.8-13.4v-8c0-6,1.3-10.6,3.8-13.8c2.5-3.1,6.1-4.7,10.8-4.7c4.7,0,8.3,1.6,10.8,4.7c2.5,3.1,3.8,7.6,3.8,13.4
		V512.6z M551,503.8c0-3.6-0.5-6.2-1.5-7.8c-1-1.6-2.5-2.5-4.6-2.5c-2,0-3.5,0.8-4.5,2.3c-1,1.6-1.5,4-1.5,7.3v10.5
		c0,3.5,0.5,6.2,1.4,7.9c1,1.7,2.5,2.6,4.6,2.6c2.1,0,3.6-0.8,4.5-2.5c0.9-1.6,1.4-4.2,1.5-7.6V503.8z"/>
	<path fill="#FFFFFF" d="M590.8,514.2h4.9v6.9h-4.9v9.4h-8.6v-9.4h-17.7l-0.4-5.4l18-28.5h8.7V514.2z M572.6,514.2h9.6v-15.3l-0.6,1
		L572.6,514.2z"/>
</g>
<path fill="#343434" d="M203.3,251L203.3,251c-4,5.3-11.5,6.3-16.8,2.3l-47.2-35.7c-5.3-4-6.3-11.5-2.3-16.8l0,0
	c4-5.3,11.5-6.3,16.8-2.3l47.2,35.7C206.2,238.1,207.3,245.7,203.3,251z"/>
</svg>
