<?xml version="1.0" encoding="utf-8"?>
<!DOCTYPE svg PUBLIC "-//W3C//DTD SVG 1.1//EN" "http://www.w3.org/Graphics/SVG/1.1/DTD/svg11.dtd">
<svg xmlns="http://www.w3.org/2000/svg" xmlns:xlink="http://www.w3.org/1999/xlink" x="574px" y="112px" viewBox="0 0 574 112" style="enable-background:new 0 0 574 112" xml:space="preserve">
<style type="text/css">
	.st0{fill-rule:evenodd;clip-rule:evenodd;fill:#882225;}
	.st1{fill:#FFFFFF;stroke:#FFFFFF;stroke-miterlimit:10;}
	.st2{fill:#882225;}
</style>
<polygon class="st0" points="574,91.2 0,89.8 0,110.8 565.5,112.2 "/>
<path d="M280.9,56.3L280.9,56.3L269,85.6l-11.8-29.2h-0.1l-5.8,28.1h-2.1l7.3-35.1L269,80.3l12.5-30.9l7.3,35.1h-2.1L280.9,56.3z"/>
<path d="M323.3,67.5c0,9.5-8.1,17.4-17.6,17.4c-9.5,0-17.6-7.9-17.6-17.4c0-9.6,8-17.4,17.6-17.4C315.2,50,323.3,57.9,323.3,67.5z
	 M290.2,67.5c0,8.4,7,15.4,15.4,15.4c8.4,0,15.4-7.1,15.4-15.4c0-8.4-7-15.4-15.4-15.4C297.2,52.1,290.2,59.1,290.2,67.5z"/>
<path d="M338.8,56.1c-1.5-2.4-3.7-4-6.9-4c-3.7,0-6.4,2.9-6.4,6.5c0,3.6,3.4,5,6.1,6.3l6.5,3.4c2.7,1.4,3.9,3.7,3.9,6.8
	c0,5.6-5.1,9.9-10.6,9.9c-4.7,0-8.4-2.9-10-7.3l1.9-0.9c1.4,3.6,4.1,6.1,8.2,6.1c4.5,0,8.4-3.5,8.4-8c0-3.8-4-5.4-6.8-6.9l-6.1-3.2
	c-2.3-1.3-3.5-3.4-3.5-6.1c0-5,3.6-8.6,8.7-8.6c3.4,0,6.7,1.8,8.3,4.8L338.8,56.1z"/>
<path d="M371.6,57.4c-2.6-3.2-7.2-5.4-11.4-5.4c-8.5,0-15.4,7.3-15.4,15.6c0,4,1.7,7.7,4.5,10.5c2.8,2.8,6.9,4.7,10.9,4.7
	c3.9,0,8.9-2.1,11.4-5.2v3c-3.2,2.7-7.1,4.2-11.3,4.2c-9.5,0-17.7-7.9-17.7-17.4c0-9.6,8.1-17.5,17.7-17.5c4.1,0,8.2,1.6,11.3,4.4
	V57.4z"/>
<path d="M407.6,67.5c0,9.5-8.1,17.4-17.6,17.4c-9.5,0-17.6-7.9-17.6-17.4c0-9.6,8-17.4,17.6-17.4C399.5,50,407.6,57.9,407.6,67.5z
	 M374.5,67.5c0,8.4,7,15.4,15.4,15.4c8.4,0,15.4-7.1,15.4-15.4c0-8.4-7-15.4-15.4-15.4C381.5,52.1,374.5,59.1,374.5,67.5z"/>
<path d="M418.4,79.7l12.7-30.9l12.7,30.9l9.4-29.2h2.2l-11.4,35.1l-13-31.4L418,85.6l-11.3-35.1h2.2L418.4,79.7z"/>
<path d="M477.3,64.2V50.5h4.2v34h-4.2V68.1h-16.2v16.3h-4.2v-34h4.2v13.7H477.3z"/>
<path d="M518.4,67.5c0,10.1-8,17.7-17.8,17.7c-9.8,0-17.8-7.6-17.8-17.7c0-9.7,8.1-17.7,17.8-17.7C510.4,49.8,518.4,57.7,518.4,67.5
	z M514.2,67.5c0-7.5-5.6-13.7-13.6-13.7c-8,0-13.6,6.3-13.6,13.7c0,7.7,6.2,13.7,13.6,13.7C508,81.2,514.2,75.2,514.2,67.5z"/>
<path d="M525.7,62L525.7,62l-4.1,22.4h-4.4l6.9-35.4l11.7,26.7L547.5,49l6.9,35.4h-4.4l-4-22.4H546l-10.2,23.2L525.7,62z"/>
<path d="M555.8,50.5H574v3.9h-14v9.5h13.6v3.9H560v12.8h14v3.9h-18.2V50.5z"/>
<path class="st1" d="M326.9,97.8l-1.1,0.7c-1-1.3-2.3-1.9-4-1.9c-1.4,0-2.5,0.4-3.4,1.3c-0.9,0.9-1.3,1.9-1.3,3.2
	c0,0.8,0.2,1.6,0.6,2.3c0.4,0.7,1,1.3,1.7,1.7c0.7,0.4,1.5,0.6,2.4,0.6c1.6,0,3-0.6,4-1.9l1.1,0.7c-0.5,0.8-1.2,1.4-2.1,1.9
	c-0.9,0.4-1.9,0.7-3,0.7c-1.8,0-3.2-0.6-4.4-1.7c-1.2-1.1-1.7-2.5-1.7-4.1c0-1.1,0.3-2.1,0.8-3c0.5-0.9,1.3-1.6,2.2-2.2
	c0.9-0.5,2-0.8,3.2-0.8c0.7,0,1.4,0.1,2.1,0.3c0.7,0.2,1.3,0.5,1.7,0.9C326.2,96.8,326.6,97.2,326.9,97.8z"/>
<path class="st1" d="M328.4,95.5h7.3v1.2h-2.9v9.8h-1.4v-9.8h-2.9V95.5z"/>
<path class="st1" d="M337.7,95.5h1.4v2c0.6-0.8,1.2-1.4,1.9-1.7c0.7-0.4,1.5-0.6,2.5-0.6c1.6,0,2.9,0.6,4,1.7
	c1.1,1.1,1.7,2.5,1.7,4.1c0,1.6-0.6,3-1.7,4.1c-1.1,1.1-2.4,1.7-4,1.7c-0.9,0-1.7-0.2-2.4-0.6c-0.7-0.4-1.4-0.9-2-1.6v6h-1.4V95.5z
	 M343.4,96.6c-1.2,0-2.3,0.4-3.1,1.3c-0.8,0.9-1.3,1.9-1.3,3.2c0,0.8,0.2,1.6,0.6,2.3c0.4,0.7,0.9,1.2,1.6,1.6
	c0.7,0.4,1.4,0.6,2.2,0.6c0.8,0,1.5-0.2,2.2-0.6c0.7-0.4,1.2-1,1.6-1.7c0.4-0.7,0.6-1.5,0.6-2.2c0-0.8-0.2-1.5-0.6-2.2
	c-0.4-0.7-0.9-1.3-1.6-1.6C344.9,96.8,344.1,96.6,343.4,96.6z"/>
<path class="st1" d="M357.1,95.2c1.7,0,3.1,0.6,4.2,1.9c1,1.1,1.5,2.5,1.5,4c0,1.5-0.5,2.9-1.6,4.1c-1.1,1.2-2.5,1.7-4.2,1.7
	c-1.7,0-3.1-0.6-4.2-1.7c-1.1-1.2-1.6-2.5-1.6-4.1c0-1.5,0.5-2.9,1.5-4C354,95.8,355.4,95.2,357.1,95.2z M357.1,96.6
	c-1.2,0-2.2,0.4-3.1,1.3c-0.9,0.9-1.3,1.9-1.3,3.2c0,0.8,0.2,1.5,0.6,2.2c0.4,0.7,0.9,1.2,1.6,1.6c0.7,0.4,1.4,0.6,2.2,0.6
	c0.8,0,1.5-0.2,2.2-0.6c0.7-0.4,1.2-0.9,1.6-1.6c0.4-0.7,0.6-1.4,0.6-2.2c0-1.2-0.4-2.3-1.3-3.2C359.3,97,358.3,96.6,357.1,96.6z"/>
<path class="st1" d="M366.9,95.5v8.2l8.1-8.2h0.1v11.1h-1.4v-8.1l-8.1,8.1h-0.2V95.5H366.9z"/>
<path class="st1" d="M377.1,95.5h7.3v1.2h-2.9v9.8H380v-9.8h-2.9V95.5z"/>
<path class="st1" d="M395.6,102.9l1.2,0.6c-0.4,0.8-0.9,1.4-1.4,1.9c-0.5,0.5-1.1,0.8-1.7,1.1c-0.6,0.2-1.4,0.4-2.2,0.4
	c-1.8,0-3.2-0.6-4.2-1.8c-1-1.2-1.5-2.5-1.5-4c0-1.4,0.4-2.7,1.3-3.8c1.1-1.4,2.6-2.1,4.4-2.1c1.9,0,3.4,0.7,4.5,2.1
	c0.8,1,1.2,2.3,1.2,3.8h-10c0,1.3,0.4,2.3,1.2,3.2c0.8,0.8,1.8,1.2,2.9,1.2c0.6,0,1.1-0.1,1.6-0.3c0.5-0.2,1-0.5,1.4-0.8
	C394.8,104.1,395.2,103.6,395.6,102.9z M395.6,99.9c-0.2-0.8-0.5-1.4-0.8-1.8c-0.4-0.5-0.8-0.8-1.4-1.1c-0.6-0.3-1.2-0.4-1.9-0.4
	c-1.1,0-2,0.3-2.8,1c-0.6,0.5-1,1.3-1.3,2.3H395.6z"/>
<path class="st1" d="M409.2,106.6h-1.5l-3.7-8.1l-3.7,8.1h-1.5l5.1-11.1h0.3L409.2,106.6z"/>
<path class="st1" d="M412.8,99.9h1.4c1.1,0,1.9,0.1,2.5,0.3c0.6,0.2,1.1,0.5,1.6,1.1c0.4,0.6,0.7,1.2,0.7,2c0,0.9-0.3,1.7-1,2.3
	c-0.6,0.6-1.6,1-2.9,1h-3.7V95.5h1.4V99.9z M412.9,101.2v4.2h1.6c1.9,0,2.9-0.7,2.9-2c0-0.4-0.1-0.8-0.3-1.1
	c-0.2-0.4-0.5-0.6-0.9-0.8c-0.4-0.1-1.1-0.2-2.1-0.2H412.9z"/>
<path class="st1" d="M429.1,101.2h-6.4v5.3h-1.4V95.5h1.4v4.4h6.4v-4.4h1.4v11.1h-1.4V101.2z"/>
<path class="st1" d="M444.8,95.5v11.1h-1.4v-1.9c-0.6,0.7-1.3,1.3-2,1.6c-0.7,0.4-1.6,0.6-2.4,0.6c-1.6,0-2.9-0.6-4-1.7
	c-1.1-1.1-1.7-2.5-1.7-4.1c0-1.6,0.6-3,1.7-4.1c1.1-1.1,2.5-1.7,4-1.7c0.9,0,1.7,0.2,2.5,0.6c0.7,0.4,1.4,1,1.9,1.7v-2H444.8z
	 M439.1,96.6c-0.8,0-1.5,0.2-2.2,0.6c-0.7,0.4-1.2,0.9-1.6,1.6c-0.4,0.7-0.6,1.5-0.6,2.2c0,0.8,0.2,1.5,0.6,2.2
	c0.4,0.7,0.9,1.3,1.6,1.7c0.7,0.4,1.4,0.6,2.2,0.6c0.8,0,1.5-0.2,2.2-0.6c0.7-0.4,1.2-0.9,1.6-1.6c0.4-0.7,0.6-1.4,0.6-2.3
	c0-1.3-0.4-2.4-1.3-3.2C441.3,97,440.3,96.6,439.1,96.6z"/>
<path class="st1" d="M452.6,101.6h-1l-3.2,5h-1.5l3.3-5.1c-0.8-0.1-1.5-0.4-2-0.9c-0.5-0.5-0.8-1.2-0.8-2c0-1,0.3-1.7,0.9-2.3
	c0.6-0.5,1.4-0.8,2.3-0.8h3.4v11.1h-1.4V101.6z M452.6,96.7h-0.9c-0.9,0-1.5,0.1-1.8,0.2c-0.3,0.1-0.6,0.3-0.7,0.6
	c-0.2,0.3-0.3,0.7-0.3,1.1c0,0.5,0.1,0.8,0.4,1.1c0.2,0.3,0.5,0.5,0.8,0.5c0.3,0.1,0.9,0.1,1.7,0.1h0.9V96.7z"/>
<path class="st1" d="M463,95.5h1.4v4.7l5.1-4.7h2l-5.6,5.1l6.1,6h-2l-5.1-5.1l-0.4,0.4v4.7H463V95.5z"/>
<path class="st1" d="M478.7,95.2c1.7,0,3.1,0.6,4.2,1.9c1,1.1,1.5,2.5,1.5,4c0,1.5-0.5,2.9-1.6,4.1c-1.1,1.2-2.5,1.7-4.2,1.7
	c-1.7,0-3.1-0.6-4.2-1.7c-1.1-1.2-1.6-2.5-1.6-4.1c0-1.5,0.5-2.9,1.5-4C475.6,95.8,477,95.2,478.7,95.2z M478.7,96.6
	c-1.2,0-2.2,0.4-3.1,1.3c-0.9,0.9-1.3,1.9-1.3,3.2c0,0.8,0.2,1.5,0.6,2.2c0.4,0.7,0.9,1.2,1.6,1.6c0.7,0.4,1.4,0.6,2.2,0.6
	c0.8,0,1.5-0.2,2.2-0.6c0.7-0.4,1.2-0.9,1.6-1.6c0.4-0.7,0.6-1.4,0.6-2.2c0-1.2-0.4-2.3-1.3-3.2C480.9,97,479.9,96.6,478.7,96.6z"/>
<path class="st1" d="M499.1,95.5h0.4l3.8,11.1h-1.5l-2.7-8.1l-4.3,8.1h-0.3l-4.3-8.2l-2.7,8.2h-1.5l3.8-11.1h0.4l4.5,8.7L499.1,95.5
	z"/>
<path class="st1" d="M505.4,95.5h9.3v11.1h-1.4v-9.7h-6.4v9.7h-1.4V95.5z"/>
<path class="st1" d="M528.9,95.5v11.1h-1.4v-1.9c-0.6,0.7-1.3,1.3-2,1.6c-0.7,0.4-1.6,0.6-2.4,0.6c-1.6,0-2.9-0.6-4-1.7
	c-1.1-1.1-1.7-2.5-1.7-4.1c0-1.6,0.6-3,1.7-4.1c1.1-1.1,2.5-1.7,4-1.7c0.9,0,1.7,0.2,2.5,0.6c0.7,0.4,1.4,1,1.9,1.7v-2H528.9z
	 M523.2,96.6c-0.8,0-1.5,0.2-2.2,0.6c-0.7,0.4-1.2,0.9-1.6,1.6c-0.4,0.7-0.6,1.5-0.6,2.2c0,0.8,0.2,1.5,0.6,2.2
	c0.4,0.7,0.9,1.3,1.6,1.7c0.7,0.4,1.4,0.6,2.2,0.6c0.8,0,1.5-0.2,2.2-0.6c0.7-0.4,1.2-0.9,1.6-1.6c0.4-0.7,0.6-1.4,0.6-2.3
	c0-1.3-0.4-2.4-1.3-3.2C525.5,97,524.5,96.6,523.2,96.6z"/>
<path class="st1" d="M540,101.2h-6.4v5.3h-1.4V95.5h1.4v4.4h6.4v-4.4h1.4v11.1H540V101.2z"/>
<path class="st1" d="M546,95.5v8.2l8.1-8.2h0.1v11.1h-1.4v-8.1l-8.1,8.1h-0.2V95.5H546z"/>
<path class="st1" d="M560.2,95.5c-1,0-1.7,0.3-2.3,0.8c-0.6,0.5-0.9,1.3-0.9,2.3c0,0.8,0.3,1.4,0.8,2c0.5,0.5,1.2,0.8,2,0.9
	l-3.3,5.1h1.5l3.2-5h1v5h1.4V95.5H560.2z M562.1,100.4h-0.9c-0.8,0-1.4,0-1.7-0.1c-0.3-0.1-0.6-0.2-0.8-0.5
	c-0.2-0.3-0.4-0.7-0.4-1.1c0-0.5,0.1-0.9,0.3-1.1c0.2-0.3,0.4-0.5,0.7-0.6c0.3-0.1,0.9-0.2,1.8-0.2h0.9V100.4z"/>
<polygon class="st2" points="175.6,5 181.6,0 240.2,47.8 129.1,42.8 224.1,38.5 141.4,34.1 215.2,28.6 152.2,24.5 202.2,18.5 
	164.5,14.4 191.9,9.4 "/>
<polygon class="st2" points="123.6,49.3 239.5,54.1 125.3,61 239.5,66.4 126.5,73.3 239.5,78.4 126.7,86.3 239.5,91.3 123.6,98.1 
	"/>
</svg>