<?xml version="1.0" encoding="utf-8"?>
<!DOCTYPE svg PUBLIC "-//W3C//DTD SVG 1.1//EN" "http://www.w3.org/Graphics/SVG/1.1/DTD/svg11.dtd">
<svg xmlns="http://www.w3.org/2000/svg" xmlns:xlink="http://www.w3.org/1999/xlink" x="0px" y="0px" viewBox="206.8 317.4 1022.2 146.8" style="enable-background:new 206.8 317.4 1022.2 146.8;" xml:space="preserve">
<style type="text/css">
	.st0{fill:#64B1FF;}
	.st1{fill:#192735;}
</style>
<path id="Waves" class="st0" d="M760.4,461.9l12.2-59.2c1.1-4.5,2.9-14.6,5.4-30.2h0.8c1.9,12.9,3.6,23,5.2,30.2l12.8,59.2h37
	L857,331.5h-28.2l-9,61c-1.6,11.9-3.4,25.6-5.4,41.2h-0.8c-3.5-18.7-6.1-32.4-7.8-41.2l-14-61h-25l-14,61
	c-1.7,9.1-4.3,22.8-7.8,41.2h-0.8c-0.5-4.8-1.4-11.8-2.6-20.9s-2.1-15.9-2.6-20.3l-9-61h-30.2L724,461.9L760.4,461.9L760.4,461.9z
	 M919.7,451.7h0.8l2,10.2h24v-56.8c0-29.9-13.1-44.8-39.4-44.8c-13.9,0-28,4.3-42.4,13l10.6,19.4c10.3-6,19-9,26.2-9
	c9.7,0,14.9,4.8,15.6,14.4c-19.5,2-33.6,5.9-42.5,11.7c-8.9,5.8-13.3,14-13.3,24.5c0,8.5,2.7,15.7,8.1,21.4
	c5.4,5.7,12.6,8.6,21.5,8.6C900.5,464.3,910.1,460.1,919.7,451.7L919.7,451.7L919.7,451.7z M889.5,432.1c0-8.4,9.2-13.9,27.6-16.4
	v17.4c-5.6,5.6-11,8.4-16.2,8.4C893.3,441.5,889.5,438.3,889.5,432.1L889.5,432.1L889.5,432.1z M1020.4,461.9l32.4-99.2h-28.2
	l-13,46.8c-2.8,10.4-5.3,20.6-7.6,30.6h-0.8c-3.5-13.9-6.1-24.1-7.8-30.6l-12.8-46.8H953l33.4,99.2H1020.4L1020.4,461.9z
	 M1140,453.1l-9.8-17.8c-7.2,4.4-14.3,6.6-21.4,6.6c-6.8,0-12.5-1.8-17.1-5.3c-4.6-3.5-7.5-8.8-8.7-15.7h59.4
	c0.9-4.3,1.3-8.6,1.2-13c0-14.1-3.6-25.6-10.9-34.4c-7.3-8.8-17.7-13.2-31.3-13.2c-12.5,0-23.5,4.8-32.8,14.4
	c-9.3,9.6-14,22.1-14,37.6c0,16,4.7,28.7,14.2,38c9.5,9.3,21.5,14,36,14C1117.4,464.2,1129.7,460.3,1140,453.1L1140,453.1
	L1140,453.1z M1089.5,387.5c3.4-3.1,7.9-4.9,12.5-4.8c11.1,0,16.6,6.3,16.6,18.8h-35.8C1083.7,395.3,1086,390.7,1089.5,387.5z
	 M1218.3,455.3c6.9-5.6,10.9-14.1,10.7-23c0-8.1-2.4-14.4-7.3-18.8c-4.9-4.4-11.4-8.1-19.5-11c-0.8-0.3-2.2-0.8-4.2-1.5
	c-2-0.7-3.4-1.3-4.2-1.6c-0.8-0.3-1.9-0.8-3.4-1.4c-1.1-0.4-2.2-1-3.2-1.6c-0.8-0.6-1.5-1.2-2.2-1.8c-0.7-0.6-1.3-1.4-1.7-2.2
	c-0.3-0.8-0.5-1.6-0.5-2.5c0-5.2,3.7-7.8,11.2-7.8c6.3,0,13.3,2.8,21,8.4l13.2-17.6c-11.3-8.4-23-12.6-35-12.6
	c-11.5,0-20.7,2.9-27.6,8.6c-6.8,5.4-10.6,13.7-10.4,22.4c0,12.8,8.7,22.5,26.2,29.2c0.8,0.3,1.9,0.7,3.4,1.3c1.5,0.6,2.6,1,3.3,1.3
	c0.7,0.3,1.7,0.7,3,1.2c1,0.4,2,0.9,2.9,1.4c0.7,0.4,1.5,0.9,2.5,1.4c0.8,0.4,1.5,0.9,2.2,1.5c0.5,0.5,1,1,1.5,1.6
	c0.5,0.5,0.9,1.2,1.1,1.9c0.2,0.6,0.3,1.3,0.3,2c0,5.6-4.2,8.4-12.6,8.4c-7.9,0-16.4-3.5-25.6-10.4l-13.2,18.4
	c5.4,4.3,11.5,7.7,18,10c6.4,2.4,13.2,3.7,20,3.8C1201.2,464.3,1211.2,461.3,1218.3,455.3z"/>
<path id="Media" class="st1" d="M233.2,461.9v-47.8c0-6.8-1.3-21.6-3.8-44.4h0.8l10.4,31l18.6,49.8h16.2l18.6-49.8l10.6-31h0.8
	c-2.5,22.8-3.8,37.6-3.8,44.4v47.8h26.8V331.5h-32l-20.6,58c-0.9,2.8-2.2,6.9-3.8,12.4c-1.6,5.5-2.8,9.3-3.6,11.6h-0.8
	c-0.7-2-1.9-5.8-3.6-11.4s-3.1-9.8-4-12.6l-21-58h-32.2v130.4H233.2z M431.7,453.1l-9.8-17.8c-7.2,4.4-14.3,6.6-21.4,6.6
	c-6.8,0-12.5-1.8-17.1-5.3c-4.6-3.5-7.5-8.8-8.7-15.7h59.4c0.9-4.3,1.3-8.6,1.2-13c0-14.1-3.6-25.6-10.9-34.4
	c-7.3-8.8-17.7-13.2-31.3-13.2c-12.5,0-23.5,4.8-32.8,14.4s-14,22.1-14,37.6c0,16,4.7,28.7,14.2,38c9.5,9.3,21.5,14,36,14
	C409.1,464.2,421.4,460.3,431.7,453.1L431.7,453.1z M381.2,387.5c3.4-3.1,7.9-4.9,12.5-4.8c11.1,0,16.6,6.3,16.6,18.8h-35.8
	C375.4,395.3,377.7,390.7,381.2,387.5z M513.3,452.1h0.8l2,9.8h24V321.7h-29.4v33.8l1.2,15.2c-7.3-6.9-15.5-10.4-24.4-10.4
	c-11.1,0-20.7,4.8-28.9,14.3c-8.2,9.5-12.3,22.1-12.3,37.7c0,16.1,3.7,28.8,11,38.1c7.3,9.3,17.2,13.9,29.6,13.9
	C496.4,464.3,505.2,460.2,513.3,452.1L513.3,452.1L513.3,452.1z M476.5,411.9c0-8.9,1.7-15.8,5.1-20.5c3.4-4.7,7.6-7.1,12.7-7.1
	c6.1-0.1,12,2.2,16.4,6.4v40.6c-4.4,6-9.8,9-16.2,9C482.5,440.3,476.5,430.8,476.5,411.9L476.5,411.9L476.5,411.9z M590.5,461.9
	v-99.2h-29.4v99.2L590.5,461.9L590.5,461.9z M592.7,332.7c0.1-4.2-1.6-8.2-4.7-11c-3.1-2.8-7.2-4.2-12.3-4.2
	c-4.4-0.2-8.8,1.3-12.2,4.2c-3.2,2.8-4.9,6.8-4.8,11c-0.1,4.2,1.6,8.3,4.8,11.1c3.4,2.9,7.7,4.5,12.2,4.3c4.5,0.2,8.8-1.4,12.2-4.3
	C591.1,341,592.9,336.9,592.7,332.7L592.7,332.7z M664.4,451.7h0.8l2,10.2h24v-56.8c0-29.9-13.1-44.8-39.4-44.8
	c-13.9,0-28,4.3-42.4,13l10.6,19.4c10.3-6,19-9,26.2-9c9.7,0,14.9,4.8,15.6,14.4c-19.5,2-33.6,5.9-42.5,11.7
	c-8.9,5.8-13.3,14-13.3,24.5c0,8.5,2.7,15.7,8.1,21.4c5.4,5.7,12.6,8.6,21.5,8.6C645.2,464.3,654.8,460.1,664.4,451.7L664.4,451.7
	L664.4,451.7z M634.2,432.1c0-8.4,9.2-13.9,27.6-16.4v17.4c-5.6,5.6-11,8.4-16.2,8.4C638,441.5,634.2,438.3,634.2,432.1L634.2,432.1
	z"/>
</svg>